<svg width="529" height="529" viewBox="0 0 529 529" fill="none" xmlns="http://www.w3.org/2000/svg">
<circle cx="264.5" cy="264.5" r="264.5" fill="black"/>
<path d="M134.5 322.5C141.08 317.803 157.869 307.505 162.382 302.996C166.894 298.487 179.929 279.824 185.883 271.056C189.33 264.794 196.6 249.826 198.104 240.056C199.984 227.844 206.564 192.372 203.744 167.948C200.924 143.523 166.142 236.524 176.483 236.524C186.823 236.524 220.665 239.342 231.006 230.888C239.279 224.124 229.439 248.736 223.486 261.888C221.605 270.969 218.973 296.752 223.486 296C229.126 295.061 239.467 297.585 249.807 275.039C260.148 252.494 294.38 132.409 292.5 115.5C290.62 98.5908 274.32 123.454 271.5 177C268.68 230.546 272.369 328.773 276.129 348.5C279.889 368.228 284.59 427.015 276.129 419.5C267.668 411.985 260 411.349 260 362.5C260 323.421 278.949 273.864 287.41 248.5C290.629 238.848 298.492 216 301.5 216C305.26 216 305.271 262.827 309.031 271.282C312.791 279.736 330.653 311.676 365.435 283.494C380.785 271.056 411.5 245 387 265.5" stroke="white" stroke-width="8"/>
</svg>
