<svg width="60" height="66" viewBox="0 0 60 66" fill="none" xmlns="http://www.w3.org/2000/svg">
<path d="M35.1085 1.0736C34.8938 1.28829 34.2191 1.34963 33.0843 1.22695C31.4588 1.04293 31.2748 1.10427 30.0787 2.05503C29.3733 2.60708 28.5452 3.06712 28.2692 3.06712C27.9625 3.06712 27.4105 3.31248 27.0118 3.64985C26.613 3.95654 25.8156 4.44726 25.2636 4.72328C24.6809 5.02998 24.2822 5.33668 24.3742 5.42869C24.4662 5.49003 24.8035 5.42869 25.1409 5.24467C25.6623 4.96864 25.7236 5.02998 25.5703 5.70471C25.4783 6.19543 25.2943 6.41011 25.0182 6.31811C24.7729 6.2261 24.5888 6.34877 24.5888 6.59413C24.5888 6.87016 24.4048 6.96217 24.0675 6.83949C23.6381 6.68614 23.6074 6.80882 23.7608 7.6369C23.9448 8.43431 23.8221 8.77168 23.1474 9.44641C22.442 10.1518 22.3193 10.4892 22.3806 11.8693C22.4113 12.7587 22.5647 13.8015 22.718 14.1695C22.8407 14.5682 22.9327 15.4883 22.8713 16.2551C22.8407 17.0218 22.718 18.8927 22.626 20.4568C22.5033 22.757 22.5647 23.5544 23.0554 24.9039L23.6688 26.5294L23.4847 25.0879C23.3621 24.2598 23.4541 23.4318 23.6381 23.0944C23.9448 22.6343 23.9448 22.665 23.7914 23.3704C23.6994 23.8305 23.7301 24.5052 23.8528 24.9039C24.0675 25.4866 24.1288 25.3639 24.3128 24.0758C24.4048 23.2171 24.3742 22.481 24.2208 22.4503C24.0981 22.389 24.0368 22.205 24.1595 22.0516C24.4048 21.6529 26.1223 22.7264 26.153 23.3091C26.153 23.5544 26.3063 23.4011 26.4904 22.9104C26.9811 21.5609 27.6558 21.8676 27.6558 23.4624C27.6558 25.3333 28.4839 26.1307 31.2442 26.9588C34.7712 28.0015 34.7098 28.0629 36.826 24.4439C38.0221 22.4503 38.9729 23.0331 38.9729 25.7627C38.9729 26.3454 39.0649 27.2041 39.1569 27.6642C39.3409 28.3696 39.1876 28.6763 38.2675 29.535C37.4394 30.3324 37.2247 30.7618 37.3781 31.1605C37.5621 31.6819 37.5314 31.6819 37.0714 31.3139C36.366 30.7618 34.9552 31.1298 35.0779 31.8352C35.1392 32.1726 35.5379 32.3873 36.182 32.4486C37.0407 32.5406 37.1327 32.6326 36.8567 33.0007C36.642 33.2154 36.5807 33.6447 36.6727 33.9208C36.826 34.3195 36.734 34.3808 36.2433 34.2581C35.9059 34.1661 35.6299 34.2275 35.6299 34.3808C35.6299 34.5342 35.9366 34.6568 36.3353 34.6568C37.6541 34.6568 37.8995 35.1169 36.9794 35.853C36.55 36.1903 35.9366 36.497 35.6606 36.497C35.3846 36.497 34.9859 36.6197 34.7405 36.773C34.3725 37.0184 34.3725 37.1718 34.8018 37.8158C35.2619 38.5212 35.2619 38.6132 34.8325 38.7666C33.5751 39.2573 32.9923 38.8586 31.9802 36.8651C31.6122 36.129 31.1828 35.6383 31.0295 35.7303C30.8455 35.853 30.7228 35.6076 30.7228 35.2702C30.7228 34.8102 30.5694 34.6568 30.2934 34.7489C29.9867 34.8715 29.8947 34.7795 30.0174 34.4728C30.1094 34.2581 30.048 34.0435 29.8947 34.0435C29.7107 34.0435 29.3426 33.4914 29.0359 32.8167C28.7292 32.1419 28.2999 31.5899 28.0545 31.5899C27.8092 31.5899 27.7172 31.4365 27.8092 31.2832C28.1465 30.7618 27.5945 30.9458 27.1344 31.4979C26.7664 31.9886 26.7357 31.9579 26.9197 31.1912C27.0731 30.5471 26.9811 30.3631 26.613 30.3631C26.2757 30.3631 26.1223 30.0871 26.1223 29.4737C26.1223 28.9523 25.969 28.4616 25.785 28.3696C25.6009 28.2162 25.4783 28.5843 25.5396 29.351C25.6316 31.2832 25.5396 31.5899 24.8955 31.5899C24.0981 31.5899 23.6381 30.4551 23.8834 29.0443C24.0981 27.7255 23.6381 27.4188 22.81 28.3082C21.9819 29.167 21.5832 30.6698 22.1966 30.6698C22.4113 30.6698 22.7793 30.9458 22.994 31.2832C23.3007 31.7739 23.3007 31.8966 22.9634 31.8966C22.7487 31.8966 22.3806 31.7126 22.1353 31.4979C21.7672 31.1912 21.7672 31.2218 22.0739 31.6206C22.258 31.8966 22.3806 32.1726 22.2886 32.2646C22.1966 32.326 22.442 32.3873 22.8407 32.3566C23.8528 32.2646 24.2515 32.51 24.0675 33.0314C23.9448 33.3687 24.0061 33.4607 24.2208 33.3074C24.4355 33.1847 24.6502 33.3994 24.7729 33.8901C24.9876 34.7795 25.4169 34.9022 25.5703 34.1355C25.6316 33.8288 25.8463 34.1661 26.0917 34.9635C26.337 35.7303 26.7971 36.6197 27.1038 36.9877C27.4105 37.3251 27.6558 37.7851 27.6558 37.9998C27.6558 38.5212 29.128 40.4534 30.2321 41.4042C30.7228 41.8335 31.4895 42.4776 31.8882 42.8456C32.3176 43.2443 32.7776 43.551 32.9617 43.551C33.115 43.551 34.0351 44.3484 35.0165 45.3605C36.2433 46.5873 36.918 47.5688 37.1634 48.4275C37.3474 49.1022 37.6541 49.685 37.8688 49.7156C38.0835 49.7463 37.6848 49.9303 37.0101 50.145C35.5379 50.6357 31.8882 50.7277 30.4467 50.2984C29.4653 50.0223 29.4347 50.0223 29.9254 50.5744C30.3241 51.0038 30.3547 51.2184 30.0787 51.4025C29.8334 51.5251 29.772 51.4945 29.9254 51.2798C30.048 51.0651 29.956 50.9117 29.6187 50.9117C29.1586 50.9117 29.1586 50.9731 29.5573 51.5865C29.8027 51.9238 30.3241 52.2919 30.7228 52.3532C31.7655 52.5066 31.8882 52.7519 30.9375 52.7519C30.5081 52.7519 30.048 52.9053 29.9254 53.0893C29.8027 53.3346 29.956 53.3653 30.4161 53.212C30.9068 53.0586 31.2135 53.1813 31.5509 53.6413C31.7962 54.0094 32.1336 54.1934 32.3176 54.1014C32.5323 53.9787 32.563 54.0401 32.4403 54.2241C32.3176 54.4081 32.0416 54.5001 31.7962 54.3774C31.2748 54.1934 31.2135 54.5308 31.6429 55.2055C31.8882 55.6042 31.9496 55.6042 31.9496 55.2362C31.9496 54.8988 32.1336 54.9601 32.563 55.4509C32.9003 55.8189 33.1763 56.1869 33.1763 56.2483C33.1763 56.4936 31.5815 55.7882 30.9988 55.2975C30.4161 54.8068 29.8027 54.7761 29.8027 55.2668C29.8027 55.4509 29.8947 55.5122 29.9867 55.4202C30.1094 55.3282 30.4467 55.3588 30.7841 55.5429C31.3362 55.8496 31.3362 55.9109 30.9068 56.4016C30.2014 57.1684 30.3854 58.2725 31.2442 58.2725C31.7349 58.2725 31.9496 58.0884 31.9496 57.6591C31.9496 57.199 32.1949 56.9843 32.839 56.8617C33.4524 56.739 33.6977 56.5243 33.5751 56.2483C33.483 56.0029 33.5751 55.8189 33.7591 55.8189C33.9431 55.8189 34.0964 56.0949 34.0964 56.4323C34.0964 56.7696 33.9738 57.0457 33.7897 57.0457C33.6364 57.0457 33.5137 57.3524 33.5751 57.6897C33.6057 58.0578 33.4524 58.4258 33.2377 58.4871C32.9923 58.5792 32.931 58.4565 33.0843 58.0884C33.2377 57.6591 33.1763 57.6591 32.6243 58.2111C32.2256 58.6098 32.0416 59.0699 32.1642 59.4686C32.2563 59.8673 32.1949 60.1126 31.9802 60.1126C31.7655 60.1126 31.6735 60.2046 31.7349 60.3273C32.0416 60.818 31.3668 61.9528 30.8761 61.7688C30.6308 61.6768 30.5081 61.4314 30.6308 61.2474C30.7228 61.0634 30.6614 61.0327 30.4467 61.1554C30.2627 61.2781 30.1707 61.7075 30.2321 62.1368C30.3547 62.7809 30.2627 62.8729 29.496 62.8729C28.7906 62.8729 28.6372 62.7809 28.7906 62.3515C28.9133 62.0142 28.8826 61.9221 28.6372 62.0755C28.4226 62.1982 28.2692 62.1062 28.2692 61.8301C28.2692 61.5541 28.5452 61.3394 28.9133 61.3394C29.2506 61.3394 29.4347 61.4621 29.3426 61.6461C29.2506 61.7995 29.2813 61.9528 29.4347 61.9528C29.8027 61.9528 30.1401 61.1861 30.3241 59.8673C30.4161 59.2846 30.3241 58.8859 30.1401 58.8859C29.956 58.8859 29.5267 58.6098 29.1586 58.2418L28.5452 57.6284L29.22 57.4444C29.8947 57.2604 29.8947 57.2297 29.312 57.0457C29.0053 56.923 28.3919 56.9537 27.9932 57.107C27.4105 57.3217 27.3184 57.2604 27.4718 56.8923C27.5638 56.6163 27.4718 56.4323 27.1651 56.4323C26.8277 56.4323 26.7357 56.5856 26.8584 56.923C27.0118 57.3217 26.9811 57.3524 26.6437 57.107C26.3984 56.8923 26.1223 56.831 26.0303 56.9537C25.9076 57.0457 25.8156 56.923 25.8156 56.647C25.8156 56.3709 25.9076 56.1256 26.061 56.0949C26.1837 56.0949 26.613 56.0336 27.0118 55.9416C27.4411 55.8802 27.8705 55.9722 27.9932 56.1869C28.1465 56.4323 28.2385 56.3709 28.2079 55.9416C28.1159 54.9601 27.4718 54.5001 26.9197 55.0521C26.6744 55.2975 26.2757 55.5122 26.0303 55.5122C25.8156 55.5122 25.5089 55.6042 25.3863 55.7269C25.1716 55.9722 25.0489 56.0029 24.2515 56.0949C24.0981 56.0949 24.0368 56.2483 24.1288 56.4323C24.2208 56.5856 24.1595 56.9843 23.9755 57.3217C23.7914 57.6591 23.7914 57.9964 23.9448 58.0884C24.3435 58.3338 24.7729 57.5977 24.7115 56.8003C24.6809 56.1256 24.6809 56.1256 25.2636 56.647C25.6009 56.923 25.785 57.4137 25.7236 57.7204C25.5089 58.4871 25.9997 58.7018 26.3984 58.0578C26.5824 57.7511 26.7357 57.6591 26.7357 57.8738C26.7357 58.4871 25.7543 59.2846 25.5089 58.8859C25.3556 58.6405 25.2329 58.6712 25.1102 58.9779C24.8342 59.6833 25.2022 59.8366 25.9383 59.3152C26.337 59.0699 26.7357 58.9779 26.8584 59.1005C26.9811 59.2232 26.9811 59.1005 26.8584 58.7938C26.7357 58.4258 26.8277 58.2725 27.1344 58.2725C27.4105 58.2725 27.7478 58.0271 27.9318 57.7511C28.0852 57.4444 28.2999 57.291 28.3919 57.383C28.5146 57.475 28.2999 57.9351 27.9318 58.3645C27.5945 58.8245 27.3798 59.3152 27.5025 59.4686C27.5945 59.6219 27.5331 59.8366 27.3491 59.9593C27.1958 60.0513 27.0424 60.45 27.0424 60.818C27.0424 61.3088 26.9504 61.3701 26.7664 61.0941C26.5517 60.7567 26.4597 60.7874 26.3063 61.1861C26.061 61.8915 26.337 62.2595 26.9811 62.0448C27.3798 61.9221 27.3798 61.9528 26.8891 62.3515C26.3677 62.7502 26.245 62.7502 25.877 62.2902C25.4783 61.8301 25.4783 61.8301 25.6316 62.3209C25.7236 62.6275 25.7543 62.8729 25.7236 62.9036C25.693 62.9036 24.5582 62.9649 23.2087 63.0569C21.8593 63.1183 20.5405 63.2409 20.2644 63.3023C19.8044 63.3943 19.743 62.9036 19.8044 58.7018C19.8044 56.0949 19.9271 53.9787 20.0191 53.9787C20.1418 53.9787 20.3871 54.1934 20.6018 54.4388C20.8165 54.6841 21.1232 54.8988 21.3379 54.8988C21.5219 54.8988 21.3072 54.5614 20.8472 54.1321C20.1418 53.488 20.0804 53.2733 20.2951 52.2612C20.4484 51.6478 20.4791 50.9424 20.3871 50.7277C20.1418 50.0837 21.1845 48.0901 21.6446 48.2435C21.9513 48.3662 22.0433 48.0288 21.9819 46.986C21.9513 46.0966 22.1659 44.8392 22.5953 43.7044C24.8342 37.8158 25.2329 36.497 24.7729 36.497C24.3128 36.497 22.442 37.8465 22.442 38.1532C22.442 38.5826 19.8044 41.0975 19.375 41.0975C19.1603 41.0975 17.4735 42.9683 16.9521 43.7964C16.8601 43.9804 16.4001 44.0418 15.94 43.9497C15.0199 43.7657 15.0506 43.2443 15.9707 43.2443C16.2774 43.2443 16.7374 43.0297 16.9521 42.7536C17.3201 42.2936 17.2588 42.2936 16.2467 42.723C15.6333 42.999 15.0813 43.0603 15.0199 42.907C14.8972 42.5696 12.6277 43.2443 12.6277 43.6124C12.6277 43.7351 12.413 43.8577 12.1676 43.8577C11.9223 43.8577 11.7076 44.0111 11.7076 44.1951C11.7076 44.4098 11.3702 44.4405 10.7875 44.3178C9.62207 44.0724 6.76979 44.8698 6.06439 45.6672C5.75769 46.0046 5.57368 46.4953 5.66568 46.7713C5.91104 47.3847 5.60435 48.2128 5.20564 47.9675C5.02162 47.8448 5.08296 48.0901 5.29765 48.4888C5.51234 48.8876 5.63501 49.2249 5.60435 49.2249C5.57368 49.2249 5.63501 49.4703 5.72702 49.7463C5.8497 50.053 5.88037 51.0344 5.81903 51.9852C5.72702 53.58 5.75769 53.672 6.58577 53.948C7.68988 54.3467 7.65921 54.6228 6.49376 54.4081C5.69635 54.2241 5.57368 54.3161 5.57368 54.8375C5.57368 55.1748 5.48167 55.6655 5.38966 55.9109C5.29765 56.2176 5.72702 56.7696 6.67778 57.475C7.47519 58.0884 8.24193 58.5792 8.36461 58.5792C8.51796 58.5792 8.76332 58.1191 8.91667 57.5671L9.22336 56.5856V57.5057C9.16202 59.2232 9.25403 59.4992 9.68341 59.3152C9.92876 59.2232 10.2355 58.5792 10.3275 57.8738C10.5422 56.647 11.0635 55.3282 11.0942 56.0029C11.0942 56.1563 11.2782 56.5856 11.5236 56.923C11.953 57.475 11.9836 57.475 11.9223 56.739C11.9223 56.3096 11.7383 55.8802 11.5543 55.7269C11.3702 55.6042 11.4009 55.4202 11.6769 55.2362C11.9223 55.0828 12.045 54.7761 11.953 54.5614C11.861 54.3161 11.9836 53.7027 12.1983 53.212C12.781 51.8012 13.0264 52.8746 12.873 56.0642C12.7504 58.2418 12.8117 58.7938 13.2104 59.1312C13.6398 59.4992 13.5784 59.5299 12.873 59.3766C12.229 59.2232 12.0143 59.3152 11.861 59.8059C11.4929 61.0021 12.321 61.4621 12.873 60.3273C13.1797 59.6833 13.2104 59.7139 13.2104 60.634C13.2411 61.2781 13.4558 61.7381 13.8238 61.9528C14.7132 62.4129 14.8359 62.3515 14.7439 61.4008C14.7132 60.9407 14.8359 60.2046 15.0199 59.7139C15.4186 58.7632 15.7253 58.6098 15.48 59.4686C15.388 59.8059 15.5413 60.1126 15.8173 60.2046C16.5227 60.4807 17.2281 60.1433 17.2281 59.5299C17.2281 59.1005 17.2895 59.1005 17.5348 59.4992C17.7495 59.8366 17.8109 59.6219 17.7802 58.7325C17.7189 57.0763 18.0255 54.9908 18.6083 53.5187L19.0683 52.2919L18.8536 53.488C18.7309 54.2854 18.7923 54.7455 19.099 54.8988C19.375 55.0828 19.4057 55.2668 19.1603 55.5735C18.9763 55.7882 18.7616 57.107 18.7003 58.4871C18.6389 60.6034 18.5469 60.91 18.1789 60.634C17.8109 60.3273 17.8109 60.358 18.0869 60.9407C18.3629 61.4008 18.3629 61.8301 18.1482 62.4435C17.9642 62.9036 17.9335 63.3943 18.0562 63.517C18.4856 63.885 22.7793 64.9584 25.2943 65.2958C30.4774 66.0012 37.0407 65.5412 41.6105 64.161C42.6839 63.8237 43.4813 63.425 43.4813 63.1489C43.512 62.9036 43.5427 62.5355 43.5734 62.3209C43.6347 61.7075 44.2174 61.9221 44.2174 62.5662C44.2174 63.3636 44.6468 63.3329 46.671 62.3209L48.3578 61.4928L48.5418 59.4992L48.7259 57.5057L48.7565 59.2539C48.7872 60.2353 48.9405 61.0327 49.0632 61.0327C49.2166 61.0327 49.6459 60.6954 50.0446 60.266C50.4433 59.8366 51.0261 59.4992 51.3634 59.4992C52.1302 59.4992 55.1971 57.291 57.4974 55.0828L59.2762 53.396L58.7855 52.2612C58.5401 51.6478 58.3254 51.0958 58.3254 51.0344C58.3254 50.9731 58.1108 50.9117 57.8347 50.9117C57.5587 50.9117 57.16 50.7277 56.976 50.513C56.792 50.2677 55.9639 49.8383 55.1051 49.5316C53.817 49.0716 49.5846 47.1701 47.0084 45.9126C46.3029 45.5752 41.7638 41.3122 41.7638 41.0055C41.7638 40.9134 41.9479 40.6374 42.1625 40.4227C42.5306 40.0547 43.0826 39.1039 45.5362 34.5955C45.9656 33.8288 46.487 32.602 46.7017 31.8966C46.9163 31.1912 47.7138 29.9337 48.4498 29.1056C49.2779 28.1549 49.83 27.2961 49.83 26.8361C49.83 26.3454 49.9833 26.0693 50.29 26.0693C50.5354 26.0693 50.658 25.9773 50.566 25.8547C50.4433 25.7627 50.5047 25.5173 50.658 25.3026C50.8114 25.1186 51.0261 24.4132 51.1181 23.7385C51.1794 23.0944 51.4554 22.389 51.7315 22.205C51.9768 22.021 52.0995 21.7756 52.0075 21.6836C51.9155 21.5916 52.1302 21.3462 52.4982 21.1622C52.8663 20.9782 53.5103 20.0581 53.909 19.138C54.7984 17.1138 54.7984 17.0525 54.001 17.4819C53.6637 17.6965 53.2956 17.7579 53.2036 17.6659C53.1116 17.6045 53.541 17.3285 54.1237 17.0525C55.5038 16.5004 55.8719 15.795 55.8719 13.6788C55.8719 12.0533 55.8412 11.9613 55.1051 11.9613C54.5224 11.9613 54.3997 11.8386 54.5531 11.4093C54.6451 11.1332 54.6144 11.0106 54.4917 11.1332C54.3384 11.2559 54.001 10.9799 53.725 10.4585C53.4796 9.96779 53.0196 9.10904 52.7436 8.55699C52.4369 7.97427 51.5781 7.11552 50.8114 6.65547C50.0446 6.16476 49.4313 5.55136 49.4313 5.30601C49.4313 4.75395 48.2351 3.71119 47.5604 3.68052C47.2844 3.68052 46.947 3.34315 46.855 2.91378C46.7017 2.36172 46.4563 2.14704 45.9349 2.14704C45.5055 2.14704 44.3401 1.93235 43.2973 1.65632C42.2546 1.41096 41.2118 1.25762 40.9358 1.34963C40.6904 1.44163 40.1997 1.31896 39.8317 1.0736C39.0956 0.552215 37.9301 0.460206 38.2368 0.92025C38.3288 1.0736 38.2368 1.16561 38.0221 1.0736C37.1021 0.736232 35.4152 0.736232 35.1085 1.0736ZM37.6848 11.1026C37.5314 11.624 37.6234 11.6853 38.2675 11.5319C38.7582 11.4093 39.0036 11.4706 39.0036 11.716C39.0036 12.1453 40.8131 13.4948 41.3651 13.4948C41.8252 13.4948 42.1319 14.4762 41.8865 15.1203C41.7945 15.427 41.4571 15.5497 40.9971 15.4577C40.5677 15.3963 40.2304 15.519 40.1384 15.7644C40.0157 16.071 40.353 16.2857 41.3345 16.5311C42.3466 16.8071 42.6839 17.0218 42.6839 17.4819C42.6839 17.8192 42.5306 18.0952 42.3466 18.0952C42.1012 18.0952 42.1319 18.2486 42.4079 18.586C42.96 19.23 42.2546 19.7514 40.1997 20.2421C39.3716 20.4568 38.6969 20.7942 38.6969 21.0089C38.6969 21.6529 37.8688 21.7756 37.3474 21.1929C36.734 20.5181 36.734 20.3035 37.4088 20.1808C37.7768 20.0888 37.5621 19.8741 36.642 19.3834C35.6913 18.8927 34.8018 18.7086 33.3604 18.7086C32.2563 18.7086 31.3055 18.8313 31.2135 18.954C31.1215 19.1073 30.2934 19.2607 29.3426 19.2914C27.6558 19.3527 27.6558 19.322 27.7785 18.5246C27.8705 18.0646 28.1159 17.5739 28.3305 17.4205C28.5452 17.2978 28.6066 17.1752 28.4839 17.1752C28.3305 17.1752 28.4532 16.8685 28.6986 16.5004C28.9746 16.1324 29.0973 15.519 29.0053 15.151C28.8826 14.6602 29.128 14.1695 29.956 13.3108C30.5694 12.636 31.2748 11.8693 31.5509 11.5933C31.9189 11.1946 32.1642 11.1332 32.4403 11.3786C32.7163 11.5933 33.1457 11.5319 33.9431 11.2252C34.5565 10.9492 35.4459 10.7959 35.9366 10.8572C36.4887 10.9186 36.8874 10.7959 36.9794 10.5198C37.2554 9.87578 37.8688 10.3972 37.6848 11.1026ZM29.5267 22.1743C28.9746 22.7264 29.1586 23.1557 30.1094 23.5238C30.9375 23.8305 30.9988 23.9838 30.9375 25.1186C30.9068 26.008 30.7534 26.3454 30.4774 26.2227C30.2321 26.1307 29.9254 26.0693 29.772 26.0693C28.9746 26.0693 28.2692 24.7812 28.2692 23.3704C28.2692 21.6529 28.3919 21.4689 29.22 21.6836C29.6493 21.8063 29.7413 21.9596 29.5267 22.1743ZM34.9245 25.6706C34.6485 25.9467 34.3418 26.1 34.2498 26.008C34.1578 25.916 34.3111 25.6093 34.5871 25.3333C34.8632 25.0573 35.1699 24.9039 35.2619 24.9959C35.3539 25.0879 35.2005 25.3946 34.9245 25.6706ZM34.8938 26.8361C34.5565 27.0814 34.0044 27.2961 33.6671 27.2655C33.1457 27.2655 33.207 27.1735 33.9431 26.8361C35.1392 26.284 35.6299 26.284 34.8938 26.8361ZM23.7914 38.1839C23.6688 38.4292 23.4541 38.6439 23.3007 38.6439C23.1167 38.6439 23.1474 38.4599 23.3621 38.1839C23.5768 37.9385 23.7914 37.7238 23.8528 37.7238C23.9141 37.7238 23.8834 37.9385 23.7914 38.1839ZM20.1724 42.8456C19.7124 43.3057 19.1297 44.0418 18.8536 44.5018C18.0562 45.8206 17.3815 45.8206 17.3815 44.5018C17.3815 43.6124 17.5042 43.3977 17.9949 43.3977C18.6083 43.3977 19.0376 43.1523 19.7737 42.4163C19.9884 42.2016 20.3258 42.0482 20.5711 42.0176C20.8165 42.0176 20.6631 42.3549 20.1724 42.8456ZM7.5672 45.3912C7.47519 45.5446 7.19917 45.6979 7.01515 45.6979C6.80046 45.6979 6.83113 45.5752 7.10716 45.3912C7.68988 45.0232 7.81256 45.0232 7.5672 45.3912ZM9.07001 45.5752C9.16202 45.8513 9.25403 46.3113 9.25403 46.6487C9.25403 46.986 9.46872 47.5994 9.74475 48.0288C10.1741 48.6422 10.2355 49.2556 10.0514 51.4638C9.68341 56.1869 9.34604 56.6163 9.37671 52.2919C9.40738 50.0837 9.2847 48.2435 9.13135 48.1515C8.978 48.0595 8.64064 48.7035 8.36461 49.5623C8.08859 50.421 7.62854 51.4638 7.35251 51.8625L6.83113 52.5986L6.89247 51.5251C6.92314 50.9424 7.07649 50.3597 7.19917 50.2677C7.35251 50.1757 7.59787 49.4703 7.75122 48.7342C8.02725 47.5994 7.99658 47.3541 7.50586 46.986C6.98448 46.5873 7.01515 46.5567 7.65921 46.7713C8.24193 46.9554 8.33394 46.8634 8.33394 46.0353C8.33394 45.0232 8.76332 44.7472 9.07001 45.5752ZM11.6463 46.0966C11.8916 46.5873 11.9836 47.0474 11.9223 47.1394C11.6769 47.3541 10.1741 45.8206 10.1741 45.3912C10.1741 44.7165 11.2476 45.2379 11.6463 46.0966ZM14.7746 47.0474C14.7746 47.1087 14.4985 47.2314 14.1612 47.3234C13.8238 47.4154 13.6091 47.3541 13.7318 47.2007C13.8851 46.9247 14.7746 46.802 14.7746 47.0474ZM19.0683 47.2314C19.0683 47.3847 18.915 47.5381 18.7309 47.5381C18.5776 47.5381 18.5163 47.3847 18.6083 47.2314C18.7003 47.0474 18.8536 46.9247 18.9456 46.9247C19.007 46.9247 19.0683 47.0474 19.0683 47.2314ZM18.7616 48.1515C18.7616 48.3048 18.6083 48.4582 18.3936 48.4582C18.2096 48.4582 18.1482 48.5502 18.2402 48.6422C18.3322 48.7649 18.2709 49.1329 18.0869 49.5009C17.8722 49.8383 17.7495 50.237 17.7802 50.3597C17.8109 50.513 17.6882 50.6051 17.5042 50.6051C17.3508 50.6051 17.2895 50.7277 17.3815 50.9117C17.4735 51.0651 17.4122 51.2184 17.2588 51.2184C16.7681 51.2184 16.8601 50.6357 17.5655 49.1636C18.1482 47.9368 18.7616 47.4154 18.7616 48.1515ZM44.0641 55.7269C44.1561 59.0392 44.0947 60.2967 43.8187 60.4807C43.5427 60.6647 43.5427 60.726 43.8494 60.726C44.0334 60.726 44.2174 60.9407 44.2174 61.1861C44.2174 61.7381 43.7267 61.7995 43.3893 61.2474C43.2053 60.9407 42.9906 56.4936 42.9293 51.3718C42.9293 49.6543 42.9906 49.5009 43.4813 50.3597C43.788 50.9424 43.9721 52.5372 44.0641 55.7269ZM48.0204 50.7891C48.8485 52.0159 48.4498 52.2612 47.4991 51.0651C46.9163 50.329 46.7937 49.9917 47.0697 49.9917C47.315 49.9917 47.7444 50.3597 48.0204 50.7891ZM14.0078 50.8811C14.0998 51.0344 14.0385 51.2491 13.8545 51.3718C13.7011 51.4638 13.5478 51.3411 13.5478 51.0958C13.5478 50.5437 13.7318 50.4517 14.0078 50.8811ZM19.191 51.4331C18.2709 52.1385 17.5348 52.4759 17.5348 52.2305C17.5348 51.8625 19.191 50.6664 19.4977 50.8197C19.651 50.9424 19.4977 51.1878 19.191 51.4331ZM14.9893 51.9852C14.8666 52.2305 14.6519 52.4452 14.4679 52.4452C14.2839 52.4452 14.2839 52.2305 14.5292 51.8318C14.9586 51.1571 15.2653 51.2491 14.9893 51.9852ZM41.2425 52.9666C41.3651 54.1014 41.3038 54.5921 41.0584 54.5921C40.7824 54.5921 40.7824 54.6534 41.0584 54.8375C41.4571 55.0828 41.8252 60.8794 41.5492 62.3209C41.3958 63.0876 41.2731 63.1796 40.0463 63.1796H38.6969L38.8809 61.8915C39.0649 60.726 39.0342 60.634 38.5129 60.818C37.9608 61.0327 37.9608 61.0021 38.4822 60.6034C38.8809 60.2967 38.9116 60.1433 38.6355 60.0513C38.4209 59.9593 38.5435 59.8366 38.9422 59.7446C39.4023 59.6219 39.617 59.6833 39.617 59.99C39.617 60.2353 39.8317 60.4193 40.1077 60.4193C40.3837 60.4193 40.5371 60.6034 40.445 60.7874C40.3837 61.0021 40.1384 61.1554 39.9543 61.0941C39.525 61.0021 39.4943 62.4742 39.9543 62.7196C40.1384 62.8422 40.353 62.8729 40.445 62.7809C40.8131 62.4129 40.8744 60.4193 40.5371 59.7753C40.2304 59.2539 40.261 59.0699 40.5677 58.8245C40.9051 58.6405 40.8438 58.5792 40.3837 58.6405C40.0463 58.7018 39.6783 58.8552 39.5556 59.0392C39.4023 59.2539 39.3103 59.2539 39.3103 59.0392C39.3103 58.6098 39.7703 57.9351 40.1077 57.8738C40.2304 57.8431 40.3837 57.107 40.445 56.2789C40.4757 55.4202 40.5677 54.4081 40.6291 53.9787C40.7211 53.5493 40.7824 52.7519 40.8131 52.1692C40.8744 50.6971 41.0584 51.0651 41.2425 52.9666ZM39.2796 53.12C38.5742 55.3895 38.3902 55.7269 38.5742 54.4388C38.7275 53.304 39.1876 52.1385 39.4636 52.1385C39.525 52.1385 39.433 52.5986 39.2796 53.12ZM38.0835 54.6841C38.0835 54.8375 37.9608 54.8375 37.7768 54.7455C37.6234 54.6534 37.4394 54.8068 37.4088 55.1135C37.4088 55.4202 37.3474 55.7882 37.3167 55.9722C37.2554 56.1256 37.1941 56.4016 37.1634 56.5856C37.1327 56.739 37.1021 57.015 37.1327 57.1377C37.1634 57.2604 37.0101 57.6897 36.7954 58.0578C36.5807 58.4258 36.458 58.8859 36.4887 59.1005C36.5193 59.2846 36.3046 59.5299 35.9673 59.6526C35.5686 59.7753 35.4152 60.0513 35.4766 60.45C35.5379 60.7874 35.4152 61.1247 35.2005 61.2167C34.7098 61.4008 34.6792 62.3209 35.1392 62.6275C35.3232 62.7502 34.8325 62.8729 34.0658 62.8729H32.655L33.299 61.0327C34.0351 59.0085 34.7098 58.0578 34.7098 59.0085C34.7098 59.8059 35.5072 59.1005 35.7526 58.1191C35.8753 57.6897 36.09 57.3524 36.274 57.3524C36.5193 57.3524 36.4887 57.199 36.2433 56.8923C35.9366 56.5243 35.9366 56.4323 36.2433 56.4323C36.458 56.4323 36.55 56.2176 36.4273 55.9416C36.3353 55.6962 36.366 55.5735 36.55 55.6655C36.734 55.7576 36.8567 55.6349 36.8567 55.3588C36.8567 55.0828 37.0101 54.5614 37.1941 54.2241C37.4701 53.7027 37.5928 53.672 37.8075 54.0094C37.9608 54.2547 38.0835 54.5614 38.0835 54.6841ZM50.5967 54.4388C50.5047 54.5308 50.3207 54.3774 50.2287 54.0707C50.0446 53.6413 50.0753 53.6107 50.382 53.8867C50.5967 54.1014 50.6887 54.3467 50.5967 54.4388ZM55.7492 54.7761C56.2706 55.2055 56.2706 55.2362 55.7799 55.0828C55.4732 54.9908 55.0745 54.8988 54.9211 54.8988C54.7678 54.8988 54.6451 54.7455 54.6451 54.5921C54.6451 54.1627 55.0438 54.2241 55.7492 54.7761ZM34.4031 55.2362C34.4031 55.4202 34.2805 55.4815 34.1271 55.3588C33.9738 55.2668 33.7591 55.3282 33.6364 55.5122C33.5137 55.6962 33.299 55.7269 33.115 55.6349C32.9003 55.4815 32.9617 55.2668 33.3297 55.0215C33.9124 54.5921 34.4031 54.7148 34.4031 55.2362ZM15.94 56.8923C15.4186 57.6591 14.8972 58.1805 14.8052 58.1191C14.7439 58.0271 14.8359 57.7817 15.0199 57.5977C15.5413 57.0763 15.48 56.3403 14.9279 56.555C14.6826 56.647 14.4679 56.6163 14.4679 56.4936C14.4679 56.2483 15.8787 55.6042 16.5227 55.5429C16.7374 55.5122 16.4614 56.1256 15.94 56.8923ZM35.3232 56.739C35.3232 56.8923 35.1699 57.0457 34.9859 57.0457C34.8325 57.0457 34.7712 56.8923 34.8632 56.739C34.9552 56.555 35.1085 56.4323 35.2005 56.4323C35.2619 56.4323 35.3232 56.555 35.3232 56.739ZM53.5717 56.9537C54.1237 57.383 54.1237 57.4137 53.633 57.2297C53.3263 57.1377 52.9276 57.0457 52.7742 57.0457C52.6209 57.0457 52.4982 56.8923 52.4982 56.739C52.4982 56.3096 52.8663 56.3709 53.5717 56.9537ZM52.0382 58.0884C52.4062 58.3645 52.4982 58.5485 52.2529 58.5792C51.7315 58.5792 50.3513 57.6591 50.3513 57.291C50.3513 56.9843 51.0261 57.3217 52.0382 58.0884ZM29.5573 59.2539C29.8947 59.1925 30.1094 59.3459 30.1094 59.6833C30.1094 60.082 30.0174 60.1126 29.6493 59.8059C29.2506 59.4992 29.1893 59.5299 29.1893 60.082C29.1893 60.5727 29.0053 60.726 28.4226 60.726C27.8398 60.726 27.7172 60.8487 27.8398 61.2474C27.9932 61.7075 27.9625 61.7381 27.7172 61.3394C27.5025 61.0327 27.5025 60.5113 27.7478 59.7446C28.0238 58.8245 28.1772 58.6712 28.5452 58.9779C28.7906 59.1925 29.22 59.3152 29.5573 59.2539ZM39.0036 59.1925C39.0036 59.3766 38.7889 59.4992 38.4822 59.4379C38.1142 59.3766 37.9608 59.6219 37.8688 60.4193C37.7155 61.6768 37.6234 61.7688 37.1634 61.4928C36.8874 61.3088 36.8874 61.1861 37.1941 61.0021C37.5314 60.7874 37.5314 60.726 37.2247 60.726C36.918 60.726 36.918 60.6034 37.2247 60.0206C37.4394 59.6526 37.5621 59.2539 37.5314 59.1005C37.5008 58.9779 37.8075 58.8859 38.2368 58.8859C38.6662 58.8859 39.0036 59.0392 39.0036 59.1925ZM47.8978 60.266C48.2351 60.6647 48.2045 60.6954 47.7751 60.542C47.4991 60.45 47.2844 60.2353 47.2844 60.082C47.2844 59.6833 47.4684 59.7446 47.8978 60.266ZM37.3474 62.5355C37.2247 62.7196 36.918 62.8729 36.6727 62.8729C36.3046 62.8729 36.274 62.7502 36.5807 62.2288C36.7954 61.7995 37.0101 61.6768 37.2247 61.8915C37.4088 62.0755 37.4394 62.3515 37.3474 62.5355Z" fill="white"/>
<path d="M34.3419 60.0206C34.5566 60.1126 34.8326 60.082 34.9246 59.99C35.0473 59.898 34.8633 59.8059 34.5259 59.8366C34.1885 59.8366 34.0965 59.9286 34.3419 60.0206Z" fill="white"/>
<path d="M28.116 59.8059C28.024 59.9593 28.1467 60.1126 28.4227 60.1126C28.6987 60.1126 28.8214 59.9593 28.7294 59.8059C28.6374 59.6219 28.4841 59.4993 28.4227 59.4993C28.3614 59.4993 28.208 59.6219 28.116 59.8059Z" fill="white"/>
<path d="M25.6931 25.0266C25.5704 25.4866 25.6011 25.9773 25.7238 26.1C25.8771 26.2534 26.0305 25.8853 26.0611 25.3026C26.1531 24.0452 25.9691 23.8918 25.6931 25.0266Z" fill="white"/>
<path d="M25.509 27.2655C25.509 27.6335 25.6624 27.9095 25.8157 27.9095C25.9997 27.9095 26.1224 27.7255 26.1224 27.4802C26.1224 27.2348 25.9997 26.9281 25.8157 26.8361C25.6624 26.7441 25.509 26.9281 25.509 27.2655Z" fill="white"/>
<path d="M35.0166 30.0564C35.0166 30.4551 35.354 30.4551 35.9367 30.0564C36.3047 29.8111 36.2741 29.7497 35.722 29.7497C35.3233 29.7497 35.0166 29.8724 35.0166 30.0564Z" fill="white"/>
<path d="M31.9497 32.5713C31.2443 33.3381 31.0603 34.0435 31.367 34.8102C31.551 35.3316 31.6123 35.3316 31.6123 34.8715C31.643 34.5955 31.827 34.3502 32.0417 34.3195C32.2257 34.2888 32.7471 34.2581 33.1458 34.2581C34.0046 34.1968 34.4033 33.4301 33.5752 33.4301C33.0845 33.3994 33.1151 33.3381 33.7592 32.8167C34.1579 32.4793 34.3419 32.1726 34.2192 32.1726C32.9004 31.9579 32.4404 32.0499 31.9497 32.5713Z" fill="white"/>
<path d="M3.51884 47.7528C3.79486 47.8141 4.22424 47.8141 4.43893 47.7528C4.62294 47.6608 4.40826 47.5994 3.88687 47.5994C3.39616 47.5994 3.21214 47.6608 3.51884 47.7528Z" fill="white"/>
<path d="M3.18154 48.5195C2.96685 48.7342 2.8135 48.7649 2.8135 48.6115C2.8135 48.4582 2.32279 48.7956 1.74006 49.3783C1.15734 49.961 0.666626 50.6971 0.666626 51.0344C0.697296 51.5865 0.758635 51.5251 1.18801 50.7891C1.43337 50.2984 1.92408 49.593 2.26145 49.2556L2.87484 48.6115L2.5068 49.3476C2.29212 49.777 2.07743 50.7584 2.01609 51.5251C1.92408 52.8746 2.01609 53.028 3.33488 54.4081C4.74569 55.8189 4.77636 55.8496 5.05238 55.1442C5.17506 54.7455 5.2364 53.3347 5.14439 51.9852C5.08305 50.6357 4.99104 49.2556 4.96037 48.9182C4.89904 47.7528 4.43899 49.1329 4.2243 51.1571C3.97895 53.2733 3.79493 53.9787 3.45756 53.9787C3.24288 53.9787 3.42689 51.9852 3.88694 49.6543C4.10162 48.4582 3.76426 47.9368 3.18154 48.5195Z" fill="white"/>
<path d="M23.9142 49.5316C25.4783 50.421 25.9691 50.5437 26.0611 50.145C26.0917 49.961 25.877 49.8076 25.601 49.8076C25.2943 49.777 24.6503 49.5316 24.1289 49.2556C22.6567 48.4582 22.4727 48.7035 23.9142 49.5316Z" fill="white"/>
<path d="M27.0732 51.0651C27.4719 51.2798 28.1467 51.5558 28.5147 51.6785C29.2201 51.8932 29.2201 51.8625 28.6681 51.3105C28.3614 51.0038 27.7173 50.7277 27.2266 50.7277L26.3372 50.6971L27.0732 51.0651Z" fill="white"/>
<path d="M26.1223 53.3653C26.1223 53.5187 26.337 53.5493 26.6437 53.4573C26.9811 53.3347 27.0731 53.3653 26.9197 53.6107C26.797 53.8254 26.8277 53.9787 27.0117 53.9787C27.5331 53.9787 27.6558 53.4267 27.1651 53.2426C26.4597 52.9666 26.1223 53.028 26.1223 53.3653Z" fill="white"/>
<path d="M30.2629 53.7947C29.9255 54.0401 29.4655 54.1321 29.2201 54.0401C28.9441 53.948 28.8521 54.0094 29.0054 54.2241C29.0975 54.4081 28.9134 54.5921 28.5147 54.6841L27.8093 54.8068L28.5147 54.8681C28.9134 54.8681 29.6802 54.5921 30.2016 54.2241C31.091 53.58 31.1216 53.58 30.907 54.1627C30.7229 54.6228 30.7536 54.6841 31.0603 54.3467C31.6737 53.764 30.9683 53.2733 30.2629 53.7947Z" fill="white"/>
<path d="M21.89 55.5122C21.89 55.9416 21.9514 56.0949 22.0434 55.8802C22.1047 55.6962 22.1047 55.3282 22.0434 55.1135C21.9514 54.9295 21.89 55.0828 21.89 55.5122Z" fill="white"/>
<path d="M28.6374 55.6962C28.7601 56.3403 30.4162 56.5243 30.4162 55.8802C30.4162 55.6655 30.2935 55.5735 30.1095 55.6655C29.9562 55.7576 29.5268 55.6962 29.1588 55.5122C28.6067 55.2055 28.5454 55.2362 28.6374 55.6962Z" fill="white"/>
<path d="M21.7673 58.4872C21.982 58.5792 22.258 58.5485 22.35 58.4565C22.4727 58.3645 22.2887 58.2725 21.9513 58.3031C21.6139 58.3031 21.5219 58.3951 21.7673 58.4872Z" fill="white"/>
<path d="M21.7061 59.3766C21.43 60.1126 21.4914 61.0941 21.7981 60.91C22.1354 60.6954 22.4115 58.8859 22.1048 58.8859C21.9821 58.8859 21.7981 59.1005 21.7061 59.3766Z" fill="white"/>
<path d="M23.5462 59.99C23.3929 60.4193 23.4235 60.45 23.8222 60.1126C24.3436 59.6833 24.405 59.4992 24.0062 59.4992C23.8529 59.4992 23.6382 59.7139 23.5462 59.99Z" fill="white"/>
<path d="M30.7229 60.4193C30.7229 60.5727 30.8762 60.726 31.0603 60.726C31.2136 60.726 31.275 60.5727 31.1829 60.4193C31.0909 60.2353 30.9376 60.1126 30.8456 60.1126C30.7842 60.1126 30.7229 60.2353 30.7229 60.4193Z" fill="white"/>
<path d="M15.3575 61.0941C15.3575 61.3088 15.2961 61.7381 15.2348 62.0142C15.1735 62.3209 15.4801 62.6582 16.0322 62.9036C17.1056 63.333 17.075 63.333 17.351 61.8608L17.5657 60.726H16.4616C15.8175 60.726 15.3881 60.8794 15.3575 61.0941Z" fill="white"/>
<path d="M20.9086 62.4129C20.9086 62.6582 20.9699 62.8729 21.0312 62.8729C21.0926 62.8729 21.2153 62.6582 21.3379 62.4129C21.43 62.1675 21.3686 61.9528 21.2153 61.9528C21.0312 61.9528 20.9086 62.1675 20.9086 62.4129Z" fill="white"/>
</svg>
