<svg width="269" height="319" viewBox="0 0 269 319" fill="none" xmlns="http://www.w3.org/2000/svg">
<path d="M2.5 216.5C9.08043 211.803 25.8693 201.505 30.3816 196.996C34.8939 192.487 47.9294 173.824 53.8832 165.056C57.33 158.794 64.5999 143.826 66.104 134.056C67.9841 121.844 74.5645 86.3721 71.7443 61.9477C68.9241 37.5232 34.1419 130.524 44.4826 130.524C54.8232 130.524 88.6654 133.342 99.0061 124.888C107.279 118.124 97.4393 142.736 91.4856 155.888C89.6055 164.969 86.9733 190.752 91.4856 190C97.126 189.061 107.467 191.585 117.807 169.039C128.148 146.494 162.38 26.4093 160.5 9.50003C158.62 -7.4092 142.32 17.4542 139.5 71.0001C136.68 124.546 140.369 222.773 144.129 242.5C147.889 262.228 152.59 321.015 144.129 313.5C135.668 305.985 128 305.349 128 256.5C128 217.421 146.949 167.864 155.41 142.5C158.629 132.848 166.492 110 169.5 110C173.26 110 173.271 156.827 177.031 165.282C180.791 173.736 198.653 205.676 233.435 177.494C248.785 165.056 279.5 139 255 159.5" stroke="white" stroke-width="8"/>
</svg>
